<svg xmlns="http://www.w3.org/2000/svg" version="1.1" xmlns:xlink="http://www.w3.org/1999/xlink" xmlns:svgjs="http://svgjs.dev/svgjs" width="1500" height="424" viewBox="0 0 1500 424"><g transform="matrix(1,0,0,1,0.6141878956162827,4.291069555864198)"><svg viewBox="0 0 396 112" data-background-color="#e0ded5" preserveAspectRatio="xMidYMid meet" height="424" width="1500" xmlns="http://www.w3.org/2000/svg" xmlns:xlink="http://www.w3.org/1999/xlink"><g id="tight-bounds" transform="matrix(1,0,0,1,0.2516536566595846,0.00016668872081027075)"><svg viewBox="0 0 395.52 111.9996666225584" height="111.9996666225584" width="395.52"><g><svg viewBox="0 0 529.390625928782 149.90790255140348" height="111.9996666225584" width="395.52"><g transform="matrix(1,0,0,1,133.870625928782,20.718096517596287)"><svg viewBox="0 0 395.52 108.47170951621091" height="108.47170951621091" width="395.52"><g id="textblocktransform"><svg viewBox="0 0 395.52 108.47170951621091" height="108.47170951621091" width="395.52" id="textblock"><g><svg viewBox="0 0 395.52 75.58430182489235" height="75.58430182489235" width="395.52"><g transform="matrix(1,0,0,1,0,0)"><svg width="395.52" viewBox="3.49 -35.5 238.10999999999999 45.51" height="75.58430182489235" data-palette-color="#243cfc"><path d="M24.1 0L20.46 0 10.96-14.94 6.64-14.94 6.64 0 3.49 0 3.49-35.01 14.6-35.01Q16.38-35.01 17.94-34.34 19.51-33.67 20.68-32.5 21.85-31.32 22.52-29.75 23.19-28.17 23.19-26.39L23.19-26.39 23.19-23.56Q23.19-21.78 22.52-20.2 21.85-18.63 20.68-17.46 19.51-16.28 17.94-15.61 16.38-14.94 14.6-14.94L14.6-14.94 24.1 0ZM20.04-23.56L20.04-26.39Q20.04-27.56 19.6-28.58 19.17-29.59 18.41-30.36 17.65-31.13 16.64-31.57 15.63-32.01 14.45-32.01L14.45-32.01 6.64-32.01 6.64-17.94 14.45-17.94Q15.63-17.94 16.64-18.38 17.65-18.82 18.41-19.59 19.17-20.36 19.6-21.37 20.04-22.39 20.04-23.56L20.04-23.56ZM45.8-6.86L45.8-6.86Q45.8-5.35 45.22-4 44.65-2.66 43.65-1.66 42.65-0.66 41.31-0.09 39.96 0.49 38.45 0.49L38.45 0.49 36.45 0.49Q34.93 0.49 33.59-0.09 32.25-0.66 31.25-1.66 30.25-2.66 29.67-4 29.1-5.35 29.1-6.86L29.1-6.86 29.1-18.14Q29.1-19.65 29.67-21 30.25-22.34 31.25-23.34 32.25-24.34 33.59-24.91 34.93-25.49 36.45-25.49L36.45-25.49 38.45-25.49Q39.96-25.49 41.31-24.91 42.65-24.34 43.65-23.34 44.65-22.34 45.22-21 45.8-19.65 45.8-18.14L45.8-18.14 45.8-6.86ZM42.8-6.69L42.8-18.31Q42.8-19.21 42.45-20.01 42.11-20.8 41.53-21.39 40.94-21.97 40.15-22.31 39.35-22.66 38.45-22.66L38.45-22.66 36.45-22.66Q35.54-22.66 34.75-22.31 33.96-21.97 33.37-21.39 32.79-20.8 32.44-20.01 32.1-19.21 32.1-18.31L32.1-18.31 32.1-6.69Q32.1-5.79 32.44-4.99 32.79-4.2 33.37-3.61 33.96-3.03 34.75-2.69 35.54-2.34 36.45-2.34L36.45-2.34 38.45-2.34Q39.35-2.34 40.15-2.69 40.94-3.03 41.53-3.61 42.11-4.2 42.45-4.99 42.8-5.79 42.8-6.69L42.8-6.69ZM68.5-6.86L68.5-6.86Q68.5-5.35 67.93-4 67.35-2.66 66.35-1.66 65.35-0.66 64.01-0.09 62.67 0.49 61.15 0.49L61.15 0.49 59.15 0.49Q57.64 0.49 56.29-0.09 54.95-0.66 53.95-1.66 52.95-2.66 52.38-4 51.8-5.35 51.8-6.86L51.8-6.86 51.8-35.01 54.8-35.01 54.8-22.9Q55.83-24.12 57.27-24.8 58.71-25.49 60.4-25.49L60.4-25.49 61.15-25.49Q62.67-25.49 64.01-24.91 65.35-24.34 66.35-23.34 67.35-22.34 67.93-21 68.5-19.65 68.5-18.14L68.5-18.14 68.5-6.86ZM65.5-6.69L65.5-18.31Q65.5-19.21 65.16-20.01 64.81-20.8 64.23-21.39 63.64-21.97 62.85-22.31 62.06-22.66 61.15-22.66L61.15-22.66 59.15-22.66Q58.25-22.66 57.45-22.31 56.66-21.97 56.07-21.39 55.49-20.8 55.15-20.01 54.8-19.21 54.8-18.31L54.8-18.31 54.8-6.69Q54.8-5.79 55.15-4.99 55.49-4.2 56.07-3.61 56.66-3.03 57.45-2.69 58.25-2.34 59.15-2.34L59.15-2.34 61.15-2.34Q62.06-2.34 62.85-2.69 63.64-3.03 64.23-3.61 64.81-4.2 65.16-4.99 65.5-5.79 65.5-6.69L65.5-6.69ZM91.2-6.86L91.2-6.86Q91.2-5.35 90.63-4 90.06-2.66 89.06-1.66 88.05-0.66 86.71-0.09 85.37 0.49 83.85 0.49L83.85 0.49 81.85 0.49Q80.34 0.49 79-0.09 77.65-0.66 76.65-1.66 75.65-2.66 75.08-4 74.5-5.35 74.5-6.86L74.5-6.86 74.5-18.14Q74.5-19.65 75.08-21 75.65-22.34 76.65-23.34 77.65-24.34 79-24.91 80.34-25.49 81.85-25.49L81.85-25.49 83.85-25.49Q85.37-25.49 86.71-24.91 88.05-24.34 89.06-23.34 90.06-22.34 90.63-21 91.2-19.65 91.2-18.14L91.2-18.14 91.2-6.86ZM88.2-6.69L88.2-18.31Q88.2-19.21 87.86-20.01 87.52-20.8 86.93-21.39 86.35-21.97 85.55-22.31 84.76-22.66 83.85-22.66L83.85-22.66 81.85-22.66Q80.95-22.66 80.16-22.31 79.36-21.97 78.78-21.39 78.19-20.8 77.85-20.01 77.51-19.21 77.51-18.31L77.51-18.31 77.51-6.69Q77.51-5.79 77.85-4.99 78.19-4.2 78.78-3.61 79.36-3.03 80.16-2.69 80.95-2.34 81.85-2.34L81.85-2.34 83.85-2.34Q84.76-2.34 85.55-2.69 86.35-3.03 86.93-3.61 87.52-4.2 87.86-4.99 88.2-5.79 88.2-6.69L88.2-6.69ZM94.16 7.15L121.65 7.15 121.65 10.01 94.16 10.01 94.16 7.15ZM144.79-8.11L144.79-8.11Q144.79-6.32 144.12-4.76 143.44-3.2 142.27-2.03 141.1-0.85 139.54-0.18 137.98 0.49 136.19 0.49L136.19 0.49 133.7 0.49Q131.92 0.49 130.35-0.18 128.77-0.85 127.6-2.03 126.43-3.2 125.76-4.76 125.09-6.32 125.09-8.11L125.09-8.11 125.09-26.9Q125.09-28.69 125.76-30.25 126.43-31.81 127.6-32.98 128.77-34.16 130.35-34.83 131.92-35.5 133.7-35.5L133.7-35.5 136.19-35.5Q137.98-35.5 139.54-34.83 141.1-34.16 142.27-32.98 143.44-31.81 144.12-30.25 144.79-28.69 144.79-26.9L144.79-26.9 144.79-25.49 141.64-25 141.64-26.9Q141.64-28.08 141.2-29.09 140.76-30.1 140-30.86 139.25-31.62 138.23-32.06 137.22-32.5 136.05-32.5L136.05-32.5 133.85-32.5Q132.68-32.5 131.66-32.06 130.65-31.62 129.88-30.86 129.11-30.1 128.67-29.09 128.23-28.08 128.23-26.9L128.23-26.9 128.23-8.11Q128.23-6.93 128.67-5.92 129.11-4.91 129.88-4.14 130.65-3.37 131.66-2.93 132.68-2.49 133.85-2.49L133.85-2.49 136.05-2.49Q137.22-2.49 138.23-2.93 139.25-3.37 140-4.14 140.76-4.91 141.2-5.92 141.64-6.93 141.64-8.11L141.64-8.11 141.64-10.01 144.79-9.5 144.79-8.11ZM167.49-6.86L167.49-6.86Q167.49-5.35 166.92-4 166.34-2.66 165.34-1.66 164.34-0.66 163-0.09 161.65 0.49 160.14 0.49L160.14 0.49 158.14 0.49Q156.63 0.49 155.28-0.09 153.94-0.66 152.94-1.66 151.94-2.66 151.36-4 150.79-5.35 150.79-6.86L150.79-6.86 150.79-18.14Q150.79-19.65 151.36-21 151.94-22.34 152.94-23.34 153.94-24.34 155.28-24.91 156.63-25.49 158.14-25.49L158.14-25.49 160.14-25.49Q161.65-25.49 163-24.91 164.34-24.34 165.34-23.34 166.34-22.34 166.92-21 167.49-19.65 167.49-18.14L167.49-18.14 167.49-6.86ZM164.49-6.69L164.49-18.31Q164.49-19.21 164.15-20.01 163.8-20.8 163.22-21.39 162.63-21.97 161.84-22.31 161.04-22.66 160.14-22.66L160.14-22.66 158.14-22.66Q157.24-22.66 156.44-22.31 155.65-21.97 155.06-21.39 154.48-20.8 154.14-20.01 153.79-19.21 153.79-18.31L153.79-18.31 153.79-6.69Q153.79-5.79 154.14-4.99 154.48-4.2 155.06-3.61 155.65-3.03 156.44-2.69 157.24-2.34 158.14-2.34L158.14-2.34 160.14-2.34Q161.04-2.34 161.84-2.69 162.63-3.03 163.22-3.61 163.8-4.2 164.15-4.99 164.49-5.79 164.49-6.69L164.49-6.69ZM184.85-32.15L182.09-32.15Q181.33-32.15 180.68-31.87 180.04-31.59 179.55-31.1 179.06-30.62 178.78-29.96 178.5-29.3 178.5-28.54L178.5-28.54 178.5-25 184.33-25 184.33-22.14 178.5-22.14 178.5 0 175.5 0 175.5-22.14 170.98-22.14 170.98-25 175.5-25 175.5-28.39Q175.5-29.76 176.01-30.97 176.52-32.18 177.42-33.08 178.33-33.98 179.52-34.5 180.72-35.01 182.09-35.01L182.09-35.01 184.85-35.01 184.85-32.15ZM199.2-32.15L196.44-32.15Q195.68-32.15 195.04-31.87 194.39-31.59 193.9-31.1 193.41-30.62 193.13-29.96 192.85-29.3 192.85-28.54L192.85-28.54 192.85-25 198.69-25 198.69-22.14 192.85-22.14 192.85 0 189.85 0 189.85-22.14 185.33-22.14 185.33-25 189.85-25 189.85-28.39Q189.85-29.76 190.36-30.97 190.87-32.18 191.78-33.08 192.68-33.98 193.88-34.5 195.07-35.01 196.44-35.01L196.44-35.01 199.2-35.01 199.2-32.15ZM218.9-6.86L218.9-6.86Q218.9-5.35 218.32-4 217.75-2.66 216.75-1.66 215.75-0.66 214.41-0.09 213.06 0.49 211.55 0.49L211.55 0.49 209.55 0.49Q208.03 0.49 206.69-0.09 205.35-0.66 204.35-1.66 203.35-2.66 202.77-4 202.2-5.35 202.2-6.86L202.2-6.86 202.2-18.14Q202.2-19.65 202.77-21 203.35-22.34 204.35-23.34 205.35-24.34 206.69-24.91 208.03-25.49 209.55-25.49L209.55-25.49 211.55-25.49Q213.06-25.49 214.41-24.91 215.75-24.34 216.75-23.34 217.75-22.34 218.32-21 218.9-19.65 218.9-18.14L218.9-18.14 218.9-12.26 205.2-12.26 205.2-6.69Q205.2-5.79 205.54-4.99 205.89-4.2 206.47-3.61 207.06-3.03 207.85-2.69 208.64-2.34 209.55-2.34L209.55-2.34 211.55-2.34Q212.45-2.34 213.25-2.69 214.04-3.03 214.63-3.61 215.21-4.2 215.55-4.99 215.9-5.79 215.9-6.69L215.9-6.69 215.9-8.35 218.9-7.86 218.9-6.86ZM215.9-14.6L215.9-18.31Q215.9-19.21 215.55-20.01 215.21-20.8 214.63-21.39 214.04-21.97 213.25-22.31 212.45-22.66 211.55-22.66L211.55-22.66 209.55-22.66Q208.64-22.66 207.85-22.31 207.06-21.97 206.47-21.39 205.89-20.8 205.54-20.01 205.2-19.21 205.2-18.31L205.2-18.31 205.2-14.6 215.9-14.6ZM241.6-6.86L241.6-6.86Q241.6-5.35 241.03-4 240.45-2.66 239.45-1.66 238.45-0.66 237.11-0.09 235.77 0.49 234.25 0.49L234.25 0.49 232.25 0.49Q230.74 0.49 229.39-0.09 228.05-0.66 227.05-1.66 226.05-2.66 225.48-4 224.9-5.35 224.9-6.86L224.9-6.86 224.9-18.14Q224.9-19.65 225.48-21 226.05-22.34 227.05-23.34 228.05-24.34 229.39-24.91 230.74-25.49 232.25-25.49L232.25-25.49 234.25-25.49Q235.77-25.49 237.11-24.91 238.45-24.34 239.45-23.34 240.45-22.34 241.03-21 241.6-19.65 241.6-18.14L241.6-18.14 241.6-12.26 227.9-12.26 227.9-6.69Q227.9-5.79 228.25-4.99 228.59-4.2 229.17-3.61 229.76-3.03 230.55-2.69 231.35-2.34 232.25-2.34L232.25-2.34 234.25-2.34Q235.16-2.34 235.95-2.69 236.74-3.03 237.33-3.61 237.91-4.2 238.26-4.99 238.6-5.79 238.6-6.69L238.6-6.69 238.6-8.35 241.6-7.86 241.6-6.86ZM238.6-14.6L238.6-18.31Q238.6-19.21 238.26-20.01 237.91-20.8 237.33-21.39 236.74-21.97 235.95-22.31 235.16-22.66 234.25-22.66L234.25-22.66 232.25-22.66Q231.35-22.66 230.55-22.31 229.76-21.97 229.17-21.39 228.59-20.8 228.25-20.01 227.9-19.21 227.9-18.31L227.9-18.31 227.9-14.6 238.6-14.6Z" opacity="1" transform="matrix(1,0,0,1,0,0)" fill="#243cfc" class="wordmark-text-0" data-fill-palette-color="primary" id="text-0"></path></svg></g></svg></g><g transform="matrix(1,0,0,1,0,93.42794146250563)"><svg viewBox="0 0 232.209792 15.043768053705271" height="15.043768053705271" width="232.209792"><g transform="matrix(1,0,0,1,0,0)"><svg width="232.209792" viewBox="1.5 -38.7 767.06 49.7" height="15.043768053705271" data-palette-color="#243cfc"><path d="M16.05 0.55L16.05 0.55Q9.5 0.55 5.5-3.85 1.5-8.25 1.5-15.5L1.5-15.5Q1.5-23.75 6.5-29.4 11.5-35.05 18.8-35.05L18.8-35.05Q21.7-35.05 24.18-34.52 26.65-34 27.7-33.45L27.7-33.45 28.7-32.9 25.8-25.95Q24.3-26.95 21.75-27.83 19.2-28.7 17.25-28.7L17.25-28.7Q13.2-28.7 10.75-25.85 8.3-23 8.3-18.3L8.3-18.3Q8.3-11.95 10.63-8.4 12.95-4.85 17.1-4.85L17.1-4.85Q19.8-4.85 22.2-5.6L22.2-5.6 22.2-13.35 15.75-13.35 16.25-18.4 28.25-18.4 27.8-10.25 28.15-1.6Q20.8 0.55 16.05 0.55ZM33.2-10.45Q33.2-16.85 36.65-21.3 40.1-25.75 44.72-25.75 49.35-25.75 51.92-22.75 54.5-19.75 54.5-14.8L54.5-14.8Q54.5-8.2 51.17-3.83 47.85 0.55 42.8 0.55L42.8 0.55Q38.65 0.55 35.92-2.58 33.2-5.7 33.2-10.45L33.2-10.45ZM48.9-12.2L48.9-12.2Q48.9-19.45 43.95-19.45L43.95-19.45Q38.8-19.45 38.8-12.65L38.8-12.65Q38.8-9.1 40.25-7.1 41.7-5.1 44.07-5.1 46.45-5.1 47.67-6.93 48.9-8.75 48.9-12.2ZM57.3-10.45Q57.3-16.85 60.75-21.3 64.2-25.75 68.82-25.75 73.45-25.75 76.02-22.75 78.59-19.75 78.59-14.8L78.59-14.8Q78.59-8.2 75.27-3.83 71.95 0.55 66.9 0.55L66.9 0.55Q62.75 0.55 60.02-2.58 57.3-5.7 57.3-10.45L57.3-10.45ZM73-12.2L73-12.2Q73-19.45 68.05-19.45L68.05-19.45Q62.9-19.45 62.9-12.65L62.9-12.65Q62.9-9.1 64.34-7.1 65.8-5.1 68.17-5.1 70.55-5.1 71.77-6.93 73-8.75 73-12.2ZM96.09-4.9L96.09-4.9Q92.19 0 89.34 0L89.34 0Q85.79 0 83.52-2.9 81.24-5.8 81.24-10.35L81.24-10.35Q81.24-16.6 84.72-20.9 88.19-25.2 93.24-25.2L93.24-25.2 96.04-24.8 96.04-25.75 95.44-37.45 102.29-38.7 101.64-13 101.64-8.6Q101.64-5.6 103.14-1.7L103.14-1.7 97.74 0.55Q96.29-2.45 96.09-4.9ZM86.84-12.95Q86.84-9.75 88.02-7.95 89.19-6.15 91.42-6.15 93.64-6.15 96.04-7.95L96.04-7.95 96.04-18.75Q93.04-19.35 91.59-19.35L91.59-19.35Q89.34-19.35 88.09-17.75 86.84-16.15 86.84-12.95ZM130.19-12.65Q130.19-16.1 129.59-17.25 128.99-18.4 126.79-18.4 124.59-18.4 121.79-16.65L121.79-16.65 121.79-13 122.34-1.25 115.64 0 116.24-12.15Q116.04-18.85 115.14-24.15L115.14-24.15 121.19-25.45Q121.54-22.55 121.69-19.8L121.69-19.8Q122.44-20.8 123.39-21.78 124.34-22.75 126.39-23.98 128.44-25.2 130.54-25.2 132.64-25.2 134.09-23.85 135.54-22.5 135.94-20.15L135.94-20.15Q140.09-25.2 144.34-25.2L144.34-25.2Q146.99-25.2 148.54-23.43 150.09-21.65 150.09-18.6L150.09-18.6 149.79-13 150.34-1 143.59 0.25 144.19-12.65Q144.19-16.1 143.59-17.25 142.99-18.4 140.84-18.4 138.69-18.4 135.99-16.75L135.99-16.75 135.79-13 136.34-1 129.59 0.25 130.19-12.65ZM154.34-10.45Q154.34-16.85 157.78-21.3 161.24-25.75 165.86-25.75 170.49-25.75 173.06-22.75 175.63-19.75 175.63-14.8L175.63-14.8Q175.63-8.2 172.31-3.83 168.99 0.55 163.94 0.55L163.94 0.55Q159.78 0.55 157.06-2.58 154.34-5.7 154.34-10.45L154.34-10.45ZM170.03-12.2L170.03-12.2Q170.03-19.45 165.09-19.45L165.09-19.45Q159.94-19.45 159.94-12.65L159.94-12.65Q159.94-9.1 161.38-7.1 162.84-5.1 165.21-5.1 167.59-5.1 168.81-6.93 170.03-8.75 170.03-12.2ZM179.38-24.15L179.38-24.15 185.43-25.45Q185.88-21.6 186.03-18.15L186.03-18.15Q190.58-25.2 194.58-25.2L194.58-25.2 194.03-17.4Q191.13-17.4 189.46-16.88 187.78-16.35 186.03-14.8L186.03-14.8 186.03-13 186.58-1.25 179.88 0 180.48-12.15Q180.28-18.85 179.38-24.15ZM212.23-12.65Q212.23-16.1 211.63-17.25 211.03-18.4 208.83-18.4 206.63-18.4 203.83-16.65L203.83-16.65 203.83-13 204.38-1.25 197.68 0 198.28-12.15Q198.08-18.85 197.18-24.15L197.18-24.15 203.23-25.45Q203.58-22.55 203.73-19.8L203.73-19.8Q204.48-20.8 205.43-21.78 206.38-22.75 208.43-23.98 210.48-25.2 212.76-25.2 215.03-25.2 216.58-23.43 218.13-21.65 218.13-18.6L218.13-18.6 217.83-13 218.38-1 211.63 0.25 212.23-12.65ZM223.88-24.2L230.58-25.45 229.98-13 230.53-1.25 223.83 0 224.43-12.15 223.88-24.2ZM223.53-32.77Q223.53-34.45 224.83-35.77 226.13-37.1 227.83-37.1 229.53-37.1 230.43-36.18 231.33-35.25 231.33-33.4 231.33-31.55 230.05-30.23 228.78-28.9 227.1-28.9 225.43-28.9 224.48-30 223.53-31.1 223.53-32.77ZM250.58-12.65Q250.58-16.1 249.98-17.25 249.38-18.4 247.18-18.4 244.98-18.4 242.18-16.65L242.18-16.65 242.18-13 242.73-1.25 236.03 0 236.63-12.15Q236.43-18.85 235.53-24.15L235.53-24.15 241.58-25.45Q241.93-22.55 242.08-19.8L242.08-19.8Q242.83-20.8 243.78-21.78 244.73-22.75 246.78-23.98 248.83-25.2 251.1-25.2 253.38-25.2 254.93-23.43 256.48-21.65 256.48-18.6L256.48-18.6 256.18-13 256.73-1 249.98 0.25 250.58-12.65ZM260.47 4.95L260.47 4.95Q260.47 0.55 268.67-1.95L268.67-1.95Q266.72-2.95 266.72-4.55L266.72-4.55Q266.72-5.2 267.22-5.85 267.72-6.5 268.67-7.2L268.67-7.2 268.67-7.6Q265.07-7.6 262.95-9.6 260.82-11.6 260.82-14.95L260.82-14.95Q260.82-19.3 264.37-22.53 267.92-25.75 272.77-25.75L272.77-25.75Q274.02-25.75 276.42-25.25 278.82-24.75 281.12-24.75L281.12-24.75 284.97-24.75 284.47-20.4 280.72-20.85Q281.22-19.4 281.22-17.55 281.22-15.7 280.35-13.88 279.47-12.05 278.25-10.95 277.02-9.85 275.8-9.03 274.57-8.2 273.7-7.58 272.82-6.95 272.82-6.45L272.82-6.45Q272.82-5.5 274.82-4.8L274.82-4.8Q280.12-2.65 282-1.15 283.87 0.35 283.87 2.55L283.87 2.55Q283.87 6.25 280.15 8.63 276.42 11 271.27 11 266.12 11 263.3 9.35 260.47 7.7 260.47 4.95ZM275.57-16.05L275.57-16.05Q275.57-18.5 274.47-19.65 273.37-20.8 271.02-20.8L271.02-20.8Q266.47-20.8 266.47-16.32 266.47-11.85 271.32-11.85L271.32-11.85Q275.57-11.85 275.57-16.05ZM277.37 3.3L277.37 3.3Q277.37 2.4 276.42 1.63 275.47 0.85 273.02-0.2L273.02-0.2Q269.37 0.8 268 1.65 266.62 2.5 266.62 3.75 266.62 5 268 5.78 269.37 6.55 271.82 6.55 274.27 6.55 275.82 5.65 277.37 4.75 277.37 3.3ZM310.22-38.25L308.67-32.55Q306.82-33 305.32-33 303.82-33 303.14-32.1 302.47-31.2 302.47-28.95L302.47-28.95 302.42-24.2 307.82-24.2 307.27-20.1 302.42-20.1 302.37-13 302.92-1.25 296.17 0 296.77-12.15 296.57-20.1 293.27-20.1 293.82-24.2 296.47-24.2 296.42-28Q296.42-32.45 299.17-35.58 301.92-38.7 305.87-38.7L305.87-38.7Q307.97-38.7 310.22-38.25L310.22-38.25ZM309.91-24.15L309.91-24.15 315.96-25.45Q316.41-21.6 316.56-18.15L316.56-18.15Q321.11-25.2 325.11-25.2L325.11-25.2 324.56-17.4Q321.66-17.4 319.99-16.88 318.31-16.35 316.56-14.8L316.56-14.8 316.56-13 317.11-1.25 310.41 0 311.01-12.15Q310.81-18.85 309.91-24.15ZM326.76-10.45Q326.76-16.85 330.21-21.3 333.66-25.75 338.29-25.75 342.91-25.75 345.49-22.75 348.06-19.75 348.06-14.8L348.06-14.8Q348.06-8.2 344.74-3.83 341.41 0.55 336.36 0.55L336.36 0.55Q332.21 0.55 329.49-2.58 326.76-5.7 326.76-10.45L326.76-10.45ZM342.46-12.2L342.46-12.2Q342.46-19.45 337.51-19.45L337.51-19.45Q332.36-19.45 332.36-12.65L332.36-12.65Q332.36-9.1 333.81-7.1 335.26-5.1 337.64-5.1 340.01-5.1 341.24-6.93 342.46-8.75 342.46-12.2ZM366.86-12.65Q366.86-16.1 366.26-17.25 365.66-18.4 363.46-18.4 361.26-18.4 358.46-16.65L358.46-16.65 358.46-13 359.01-1.25 352.31 0 352.91-12.15Q352.71-18.85 351.81-24.15L351.81-24.15 357.86-25.45Q358.21-22.55 358.36-19.8L358.36-19.8Q359.11-20.8 360.06-21.78 361.01-22.75 363.06-23.98 365.11-25.2 367.21-25.2 369.31-25.2 370.76-23.85 372.21-22.5 372.61-20.15L372.61-20.15Q376.76-25.2 381.01-25.2L381.01-25.2Q383.66-25.2 385.21-23.43 386.76-21.65 386.76-18.6L386.76-18.6 386.46-13 387.01-1 380.26 0.25 380.86-12.65Q380.86-16.1 380.26-17.25 379.66-18.4 377.51-18.4 375.36-18.4 372.66-16.75L372.66-16.75 372.46-13 373.01-1 366.26 0.25 366.86-12.65ZM407.36 11L400.91 9.65 406.06-1.9 402.36-12 397.31-24.15 403.95-25.4 407.16-14.75 408.81-9.7 409.45-9.7 410.66-13.35 414.25-25.45 420.41-24.7 411.56-1.45 407.36 11ZM421.95-10.45Q421.95-16.85 425.4-21.3 428.85-25.75 433.48-25.75 438.1-25.75 440.68-22.75 443.25-19.75 443.25-14.8L443.25-14.8Q443.25-8.2 439.93-3.83 436.6 0.55 431.55 0.55L431.55 0.55Q427.4 0.55 424.68-2.58 421.95-5.7 421.95-10.45L421.95-10.45ZM437.65-12.2L437.65-12.2Q437.65-19.45 432.7-19.45L432.7-19.45Q427.55-19.45 427.55-12.65L427.55-12.65Q427.55-9.1 429-7.1 430.45-5.1 432.83-5.1 435.2-5.1 436.43-6.93 437.65-8.75 437.65-12.2ZM453.55 0L453.55 0Q450.85 0 449.18-1.78 447.5-3.55 447.5-6.45L447.5-6.45 447.8-12.2 447.25-24.2 453.95-25.45 453.3-10.25Q453.3-8.1 454.08-7.1 454.85-6.1 456.55-6.1 458.25-6.1 461.25-7.8L461.25-7.8 461.25-10.8 460.7-23.95 467.45-25.2 466.85-12.7 466.9-8.6Q466.9-5.4 468.55-2.15L468.55-2.15 463.35 0.15Q461.7-3.1 461.35-5.05L461.35-5.05Q456.85 0 453.55 0ZM472.5-24.15L472.5-24.15 478.55-25.45Q479-21.6 479.15-18.15L479.15-18.15Q483.7-25.2 487.7-25.2L487.7-25.2 487.15-17.4Q484.25-17.4 482.57-16.88 480.9-16.35 479.15-14.8L479.15-14.8 479.15-13 479.7-1.25 473 0 473.6-12.15Q473.4-18.85 472.5-24.15ZM527.04-0.85L519.84 0.25 517.39-9.5 505.44-9.5 502.79 0 496.39-0.5 500.79-12.65 507.49-34.15 516.44-34.8 522.89-13.4 527.04-0.85ZM515.89-14.8L511.94-28.3 511.29-28.3 506.99-14.8 515.89-14.8ZM531.79-33.5L538.89-34.75 538.19-13 538.79 0 531.79 0 532.39-12.15 531.79-33.5ZM562.08-19.25Q559.88-19.25 558.68-17.68 557.48-16.1 557.48-12.85 557.48-9.6 558.71-7.63 559.93-5.65 562.28-5.65L562.28-5.65Q563.48-5.65 564.63-6.4 565.78-7.15 566.38-7.9L566.38-7.9 566.93-8.7 569.43-6.1Q569.28-5.85 569.06-5.4 568.83-4.95 567.96-3.8 567.08-2.65 566.11-1.78 565.13-0.9 563.58-0.18 562.03 0.55 560.33 0.55L560.33 0.55Q556.58 0.55 554.23-2.5 551.88-5.55 551.88-10.45L551.88-10.45Q551.88-16.55 555.43-21.15 558.98-25.75 563.73-25.75L563.73-25.75Q565.18-25.75 566.63-25.33 568.08-24.9 569.58-24L569.58-24 566.08-17.85Q564.28-19.25 562.08-19.25ZM571.23-10.45Q571.23-16.85 574.68-21.3 578.13-25.75 582.76-25.75 587.38-25.75 589.96-22.75 592.53-19.75 592.53-14.8L592.53-14.8Q592.53-8.2 589.21-3.83 585.88 0.55 580.83 0.55L580.83 0.55Q576.68 0.55 573.96-2.58 571.23-5.7 571.23-10.45L571.23-10.45ZM586.93-12.2L586.93-12.2Q586.93-19.45 581.98-19.45L581.98-19.45Q576.83-19.45 576.83-12.65L576.83-12.65Q576.83-9.1 578.28-7.1 579.73-5.1 582.11-5.1 584.48-5.1 585.71-6.93 586.93-8.75 586.93-12.2ZM611.33-12.65Q611.33-16.1 610.73-17.25 610.13-18.4 607.93-18.4 605.73-18.4 602.93-16.65L602.93-16.65 602.93-13 603.48-1.25 596.78 0 597.38-12.15Q597.18-18.85 596.28-24.15L596.28-24.15 602.33-25.45Q602.68-22.55 602.83-19.8L602.83-19.8Q603.58-20.8 604.53-21.78 605.48-22.75 607.53-23.98 609.58-25.2 611.68-25.2 613.78-25.2 615.23-23.85 616.68-22.5 617.08-20.15L617.08-20.15Q621.23-25.2 625.48-25.2L625.48-25.2Q628.13-25.2 629.68-23.43 631.23-21.65 631.23-18.6L631.23-18.6 630.93-13 631.48-1 624.73 0.25 625.33-12.65Q625.33-16.1 624.73-17.25 624.13-18.4 621.98-18.4 619.83-18.4 617.13-16.75L617.13-16.75 616.93-13 617.48-1 610.73 0.25 611.33-12.65ZM650.33-25.25L650.33-25.25Q653.53-25.25 655.7-22.45 657.88-19.65 657.88-14.9L657.88-14.9Q657.88-8.25 654.45-4.13 651.03 0 645.93 0L645.93 0Q644.88 0 643.58-0.15L643.58-0.15 643.83 9.4 636.98 10.65 637.63-12.15 637.68-12.15Q637.48-18.85 636.58-24.15L636.58-24.15 642.63-25.45Q642.93-22.8 643.13-20.2L643.13-20.2Q643.23-20.45 644.15-21.58 645.08-22.7 646.88-23.98 648.68-25.25 650.33-25.25ZM648.38-18.75L648.38-18.75Q645.73-18.75 643.23-17.3L643.23-17.3 643.23-13 643.43-5.85Q646.13-5.4 647.53-5.4L647.53-5.4Q652.33-5.4 652.33-12.08 652.33-18.75 648.38-18.75ZM667.02 0Q664.07 0 662.2-1.88 660.32-3.75 660.32-6.93 660.32-10.1 663.22-12.43 666.12-14.75 670.27-14.75L670.27-14.75 673.67-14.75 673.67-15.6Q673.67-18.05 672.67-18.95 671.67-19.85 668.92-19.85L668.92-19.85Q667.77-19.85 666.2-19.38 664.62-18.9 662.67-17.9L662.67-17.9 661.22-21.85Q663.37-23.35 666.45-24.55 669.52-25.75 671.52-25.75L671.52-25.75Q679.37-25.75 679.37-18.15L679.37-18.15 679.37-8.35Q679.37-5.55 681.12-2.1L681.12-2.1 675.82 0.15Q674.57-2.25 673.97-4.15L673.97-4.15Q671.22 0 667.02 0L667.02 0ZM669.12-5.1L669.12-5.1Q671.12-5.1 673.67-7.15L673.67-7.15 673.67-10.5Q671.02-11.1 669.37-11.1L669.37-11.1Q666.22-11.1 666.22-8.3L666.22-8.3Q666.22-6.85 667.02-5.98 667.82-5.1 669.12-5.1ZM699.97-12.65Q699.97-16.1 699.37-17.25 698.77-18.4 696.57-18.4 694.37-18.4 691.57-16.65L691.57-16.65 691.57-13 692.12-1.25 685.42 0 686.02-12.15Q685.82-18.85 684.92-24.15L684.92-24.15 690.97-25.45Q691.32-22.55 691.47-19.8L691.47-19.8Q692.22-20.8 693.17-21.78 694.12-22.75 696.17-23.98 698.22-25.2 700.5-25.2 702.77-25.2 704.32-23.43 705.87-21.65 705.87-18.6L705.87-18.6 705.57-13 706.12-1 699.37 0.25 699.97-12.65ZM711.62-24.2L718.32-25.45 717.72-13 718.27-1.25 711.57 0 712.17-12.15 711.62-24.2ZM711.27-32.77Q711.27-34.45 712.57-35.77 713.87-37.1 715.57-37.1 717.27-37.1 718.17-36.18 719.07-35.25 719.07-33.4 719.07-31.55 717.79-30.23 716.52-28.9 714.84-28.9 713.17-28.9 712.22-30 711.27-31.1 711.27-32.77ZM722.32-10.45Q722.32-16.85 725.77-21.3 729.22-25.75 733.84-25.75 738.47-25.75 741.04-22.75 743.62-19.75 743.62-14.8L743.62-14.8Q743.62-8.2 740.29-3.83 736.97 0.55 731.92 0.55L731.92 0.55Q727.77 0.55 725.04-2.58 722.32-5.7 722.32-10.45L722.32-10.45ZM738.02-12.2L738.02-12.2Q738.02-19.45 733.07-19.45L733.07-19.45Q727.92-19.45 727.92-12.65L727.92-12.65Q727.92-9.1 729.37-7.1 730.82-5.1 733.19-5.1 735.57-5.1 736.79-6.93 738.02-8.75 738.02-12.2ZM762.41-12.65Q762.41-16.1 761.81-17.25 761.21-18.4 759.01-18.4 756.81-18.4 754.01-16.65L754.01-16.65 754.01-13 754.56-1.25 747.86 0 748.46-12.15Q748.26-18.85 747.36-24.15L747.36-24.15 753.41-25.45Q753.76-22.55 753.91-19.8L753.91-19.8Q754.66-20.8 755.61-21.78 756.56-22.75 758.61-23.98 760.66-25.2 762.94-25.2 765.21-25.2 766.76-23.43 768.31-21.65 768.31-18.6L768.31-18.6 768.01-13 768.56-1 761.81 0.25 762.41-12.65Z" opacity="1" transform="matrix(1,0,0,1,0,0)" fill="#243cfc" class="slogan-text-1" data-fill-palette-color="secondary" id="text-1"></path></svg></g></svg></g></svg></g></svg></g><g><svg viewBox="0 0 116.02698629116871 149.90790255140348" height="149.90790255140348" width="116.02698629116871"><g><svg xmlns="http://www.w3.org/2000/svg" viewBox="6 3.9987749995463027 43.344301766801436 56.0012250004537" x="0" y="0" height="149.90790255140348" width="116.02698629116871" class="icon-icon-0" data-fill-palette-color="accent" id="icon-0"><g fill="#243cfc" data-fill-palette-color="accent"><path d="M30 22.5A1.5 1.5 0 0 0 27 22.5V28H30Z" fill="#243cfc" data-fill-palette-color="accent"></path><polygon points="32 26.149 32.92 25 32 25 32 26.149" fill="#243cfc" data-fill-palette-color="accent"></polygon><path d="M37 34V33H34.461L34.024 33.686A5 5 0 0 1 32.8 35H37Z" fill="#243cfc" data-fill-palette-color="accent"></path><path d="M33.219 21H31.649A3.5 3.5 0 0 1 32 22.5V23H33.719Z" fill="#243cfc" data-fill-palette-color="accent"></path><path d="M29 34H29.8A3.01 3.01 0 0 0 32.339 32.608L38 23.709V21H35.281L35.97 23.757C35.976 23.78 35.97 23.801 35.97 23.823A1 1 0 0 1 35.986 23.947C35.986 23.965 35.997 23.981 35.997 24S35.984 24.049 35.982 24.076A1 1 0 0 1 35.965 24.211 1 1 0 0 1 35.931 24.328 1 1 0 0 1 35.879 24.448 1 1 0 0 1 35.807 24.567C35.795 24.585 35.792 24.607 35.778 24.625L31.778 29.625C31.767 29.638 31.75 29.643 31.739 29.655A3 3 0 0 1 31.409 29.906 1 1 0 0 1 31 30H27V32A1.95 1.95 0 0 0 27.657 33.476 2 2 0 0 0 29 34" fill="#243cfc" data-fill-palette-color="accent"></path><path d="M41 21H40V24C40 24.028 39.986 24.052 39.984 24.08A1 1 0 0 1 39.945 24.28 1 1 0 0 1 39.872 24.467C39.859 24.492 39.858 24.519 39.843 24.542L39 25.863V29.288L41 24.788Z" fill="#243cfc" data-fill-palette-color="accent"></path><path d="M33.867 5.3A1.99 1.99 0 0 0 30.133 5.3 5.94 5.94 0 0 1 33.867 5.3" fill="#243cfc" data-fill-palette-color="accent"></path><rect x="28" y="37" width="9" height="2" fill="#243cfc" data-fill-palette-color="accent"></rect><path d="M32 13A1 1 0 0 0 33 14H36V12H33A1 1 0 0 0 32 13" fill="#243cfc" data-fill-palette-color="accent"></path><path d="M30 13A3 3 0 0 1 33 10H35.858A3.992 3.992 0 0 0 28 11V14H30.184A3 3 0 0 1 30 13" fill="#243cfc" data-fill-palette-color="accent"></path><polygon points="36 19 36 16 33 16 28 16 28 19 34 19 36 19" fill="#243cfc" data-fill-palette-color="accent"></polygon><polygon points="37 29.008 35.733 31 37 31 37 29.008" fill="#243cfc" data-fill-palette-color="accent"></polygon><path d="M30 58H26V60H31V59A1 1 0 0 0 30 58" fill="#243cfc" data-fill-palette-color="accent"></path><path d="M40.98 47.2L40.141 51.382 41.398 51.929 43.008 48.105A3.01 3.01 0 0 0 42.418 44.836L37.648 41H28V43.34A5.05 5.05 0 0 0 28.719 45.918L30.858 49.486A1 1 0 0 1 30.814 50.586L26.943 56H29.485L32.785 51.379A2.97 2.97 0 0 0 33.027 48.303L31.104 44.446A1 1 0 0 1 32 43H36A1 1 0 0 1 36.6 43.2L40.6 46.2A1 1 0 0 1 40.98 47.2" fill="#243cfc" data-fill-palette-color="accent"></path><path d="M43.181 54.881L39.513 53.287 38.713 55.121 43.3 57.114 43.7 56.197A1 1 0 0 0 43.182 54.881Z" fill="#243cfc" data-fill-palette-color="accent"></path><path d="M26 40V34.614A3.95 3.95 0 0 1 25 32V22.5A3.4 3.4 0 0 1 25.051 22H22A7.01 7.01 0 0 0 15 29V32.81A1 1 0 0 1 14.5 33.675 5.02 5.02 0 0 0 12 38V40A5.01 5.01 0 0 0 17 45H21A5.006 5.006 0 0 0 26 40M17 43A3 3 0 0 1 14 40V38A1 1 0 0 1 16 38V40A1 1 0 0 0 17 41 1 1 0 0 1 17 43M22 26A3 3 0 0 0 19 29V30A1 1 0 0 1 17 30V29A5.006 5.006 0 0 1 22 24 1 1 0 0 1 22 26" fill="#243cfc" data-fill-palette-color="accent"></path><path d="M13.259 48.13A5.265 5.265 0 0 1 8 42.872V41.189A1 1 0 0 0 6 41.189V42.872A7.267 7.267 0 0 0 13.259 50.13 1 1 0 0 0 13.259 48.13" fill="#243cfc" data-fill-palette-color="accent"></path><path d="M7 38A1 1 0 0 0 8 37V36A1 1 0 0 0 6 36V37A1 1 0 0 0 7 38" fill="#243cfc" data-fill-palette-color="accent"></path><path d="M47.707 42.293A1 1 0 0 0 46.293 43.707 3.56 3.56 0 0 1 47.157 47.367L47.051 47.684A1 1 0 0 0 48.951 48.316L49.054 48A5.55 5.55 0 0 0 47.707 42.293" fill="#243cfc" data-fill-palette-color="accent"></path><path d="M24.181 49.427L22.081 52.427A1 1 0 1 0 23.719 53.573L25.819 50.573A1 1 0 1 0 24.181 49.427" fill="#243cfc" data-fill-palette-color="accent"></path></g></svg></g></svg></g></svg></g><defs></defs></svg><rect width="395.52" height="111.9996666225584" fill="none" stroke="none" visibility="hidden"></rect></g></svg></g></svg>